<svg xmlns="http://www.w3.org/2000/svg" viewBox="0 0 829 289" fill="none">
<circle cx="144" cy="144" r="144" fill="#EF5B0C"/>
<g mask="url(#mask0_35_543)">
<path d="M62.1128 222.816C56.4591 231.862 48.9191 237.272 48.9191 254.235C48.9191 302.547 266.427 304.748 261.526 241.287C259.004 208.632 246.825 186.251 236.647 166.272C226.961 147.259 215.16 122.921 207.621 93.8947C203.558 78.2536 196.702 65.4425 191.315 57.2479C191.018 56.795 190.981 56.2224 191.22 55.7361C193.567 50.9643 199.904 36.9068 191.034 29.811C181.61 22.2717 171.432 31.6958 167.286 37.3502C167.089 37.618 166.366 38.6882 165.45 40.027C164.622 41.2376 163.058 40.6632 163.094 39.1968C163.136 37.4461 162.943 35.8691 162.009 35.5963C149.355 31.901 135.694 32.2175 127.191 32.6659C125.687 32.7452 125.229 31.1722 126.573 30.4919C127.223 30.1628 127.852 29.8523 128.389 29.5965C129.07 29.2726 129.458 28.5125 129.194 27.8062C127.352 22.8799 121.134 14.3623 111.119 17.1252C100.633 20.0178 101.592 33.5418 102.353 39.9635C102.411 40.4548 102.228 40.9392 101.861 41.2708C73.5105 66.8705 52.6629 102.609 48.9191 108.973C45.1494 115.382 43.6416 118.02 43.2646 127.068C42.8876 136.115 40.2709 184.054 62.1128 193.036C67.0141 195.052 70.7838 196.183 75.3073 196.937C80.5921 197.817 83.6005 198.067 89.2552 198.067C100.068 198.067 108.577 196.206 116.542 193.123C118.004 192.557 119.026 194 117.747 194.904C106.36 202.951 85.624 201.49 75.5114 200.185C74.6013 200.068 73.592 200.741 73.2555 201.595C71.9038 205.024 68.0656 213.292 62.1128 222.816Z" fill="white"/>
<mask id="mask1_35_543" style="mask-type:alpha" maskUnits="userSpaceOnUse" x="42" y="16" width="220" height="274">
<path d="M62.1128 222.816C56.4591 231.862 48.9191 237.272 48.9191 254.235C48.9191 302.547 266.427 304.748 261.526 241.287C259.004 208.632 246.825 186.251 236.647 166.272C226.961 147.259 215.16 122.921 207.621 93.8947C203.558 78.2536 196.702 65.4425 191.315 57.2479C191.018 56.795 190.981 56.2224 191.22 55.7361C193.567 50.9643 199.904 36.9068 191.034 29.811C181.61 22.2717 171.432 31.6958 167.286 37.3502C167.089 37.618 166.366 38.6882 165.45 40.027C164.622 41.2376 163.058 40.6632 163.094 39.1968C163.136 37.4461 162.943 35.8691 162.009 35.5963C149.355 31.901 135.694 32.2175 127.191 32.6659C125.687 32.7452 125.229 31.1722 126.573 30.4919C127.223 30.1628 127.852 29.8523 128.389 29.5965C129.07 29.2726 129.458 28.5125 129.194 27.8062C127.352 22.8799 121.134 14.3623 111.119 17.1252C100.633 20.0178 101.592 33.5418 102.353 39.9635C102.411 40.4548 102.228 40.9392 101.861 41.2708C73.5105 66.8705 52.6629 102.609 48.9191 108.973C45.1494 115.382 43.6416 118.02 43.2646 127.068C42.8876 136.115 40.2709 184.054 62.1128 193.036C67.0141 195.052 70.7838 196.183 75.3073 196.937C80.5921 197.817 83.6005 198.067 89.2552 198.067C100.068 198.067 108.577 196.206 116.542 193.123C118.004 192.557 119.026 194 117.747 194.904C106.36 202.951 85.624 201.49 75.5114 200.185C74.6013 200.068 73.592 200.741 73.2555 201.595C71.9038 205.024 68.0656 213.292 62.1128 222.816Z" fill="#EF5B0C"/>
</mask>
<g mask="url(#mask1_35_543)">
<path d="M111.646 166.762C111.646 149.439 109.257 126.892 106.219 117.774C104.711 113.251 97.1712 97.7952 85.4854 95.5335C67.7683 92.1044 55.7246 102.271 48.5432 112.874C43.9473 119.659 39.7585 138.835 43.9476 165.277C49.1839 198.329 73.8693 199.815 87.3342 199.072C107.906 197.937 111.646 186.939 111.646 166.762Z" fill="#D9D9D9"/>
</g>
<path d="M171.569 86.4793C163.977 77.1665 147.379 79.9977 144.005 90.7993C143.859 91.2672 144.391 91.5535 144.715 91.1863C145.805 89.9544 146.707 88.788 147.888 87.8965C148.194 87.6652 148.617 87.8926 148.672 88.2723C149.329 92.7875 154.343 97.6805 160.453 96.1466C165.662 94.8387 167.174 89.4585 166.74 85.7796C166.711 85.5325 166.861 85.3007 167.108 85.332C168.093 85.4571 169.887 86.4533 171.172 87.0261C171.575 87.2052 171.847 86.8204 171.569 86.4793Z" fill="#EF5B0C"/>
<path d="M72.9822 144.125C69.6659 178.563 71.5797 184.858 58.4762 180.234C58.1225 180.11 57.8318 180.496 58.088 180.77C63.757 186.832 77.9747 189.129 88.9216 185.736C89.3203 185.613 89.2239 185.066 88.8065 185.058C70.2221 184.737 74.8357 179.361 73.6849 144.147C73.6697 143.681 73.027 143.661 72.9822 144.125Z" fill="#EF5B0C"/>
<path d="M61.3268 135.486C56.5101 133.87 52.2778 135.303 59.4681 139.428C65.2204 142.728 65.1803 136.779 61.3268 135.486Z" fill="#EF5B0C"/>
<path d="M84.3019 136.479C89.1157 135.445 93.063 137.411 85.7074 140.679C79.823 143.293 80.4508 137.306 84.3019 136.479Z" fill="#EF5B0C"/>
</g>
<path d="M781 198C778.239 198 776 195.568 776 192.569V77.431C776 74.4316 778.239 72 781 72H817C819.761 72 822 74.4316 822 77.431V192.569C822 195.568 819.761 198 817 198H781Z" fill="#212121"/>
<path d="M616.001 198C613.239 198 611 195.637 611 192.722V23.4111C611 20.4962 613.239 18.1333 616.001 18.1333H652.807C655.569 18.1333 657.808 20.4962 657.808 23.4111V71.4875C657.808 76.4765 663.761 78.6802 666.714 74.7845L708.155 20.1141C709.104 18.8621 710.541 18.1333 712.06 18.1333H751.969C756.178 18.1333 758.504 23.2866 755.852 26.7363L702.918 95.5935C701.508 97.4273 701.424 100.026 702.713 101.957L761.238 189.684C763.571 193.18 761.201 198 757.149 198H715.677C714.014 198 712.46 197.128 711.53 195.673L674.226 137.288C672.447 134.504 668.689 134.158 666.48 136.576L659.209 144.533C658.31 145.517 657.808 146.83 657.808 148.197V192.722C657.808 195.637 655.569 198 652.807 198H616.001Z" fill="#212121"/>
<path d="M583.46 154.933C586.222 154.933 588.461 157.296 588.461 160.211V192.722C588.461 195.637 586.222 198 583.46 198H472.001C469.239 198 467 195.637 467 192.722V23.4111C467 20.4962 469.239 18.1333 472.001 18.1333H581.299C584.061 18.1333 586.3 20.4962 586.3 23.4111V55.9222C586.3 58.837 584.061 61.1999 581.299 61.1999H518.809C516.047 61.1999 513.808 63.5629 513.808 66.4777V81.2555C513.808 84.1703 516.047 86.5333 518.809 86.5333H570.738C573.499 86.5333 575.738 88.8962 575.738 91.811V121.282C575.738 124.197 573.499 126.56 570.738 126.56H518.809C516.047 126.56 513.808 128.923 513.808 131.838V149.655C513.808 152.57 516.047 154.933 518.809 154.933H583.46Z" fill="#212121"/>
<path d="M328.001 197.867C325.239 197.867 323 195.504 323 192.589V23.2778C323 20.3629 325.239 18 328.001 18H396.452C404.774 18 412.455 19.7733 419.496 23.32C426.538 26.8667 432.619 31.68 437.739 37.76C442.86 43.6711 446.781 50.3422 449.501 57.7733C452.382 65.2044 453.822 72.72 453.822 80.32C453.822 90.96 451.422 101.009 446.621 110.467C441.98 119.924 435.419 127.693 426.938 133.773C418.616 139.684 408.855 142.64 397.653 142.64H374.809C372.047 142.64 369.808 145.003 369.808 147.918V192.589C369.808 195.504 367.569 197.867 364.807 197.867H328.001ZM369.808 94.2955C369.808 97.2104 372.047 99.5733 374.809 99.5733H394.532C396.452 99.5733 398.293 98.9822 400.053 97.8C401.813 96.6177 403.254 94.5911 404.374 91.72C405.654 88.8489 406.294 85.0489 406.294 80.32C406.294 75.2533 405.574 71.3689 404.134 68.6666C402.854 65.7955 401.173 63.8533 399.093 62.84C397.173 61.6578 395.252 61.0666 393.332 61.0666H374.809C372.047 61.0666 369.808 63.4296 369.808 66.3444V94.2955Z" fill="#212121"/>
<path d="M827 35.5C827 51.2401 814.24 64 798.5 64C782.76 64 770 51.2401 770 35.5C770 19.7599 782.76 7 798.5 7C814.24 7 827 19.7599 827 35.5Z" fill="#D9D9D9"/>
<path d="M803.174 282.011C802.311 282.011 801.541 281.939 800.865 281.795C800.188 281.666 799.721 281.536 799.462 281.407L800.757 276.918C801.994 277.234 803.087 277.349 804.037 277.263C804.987 277.177 805.828 276.752 806.562 275.99C807.31 275.242 807.994 274.026 808.612 272.342L809.562 269.753L797.304 236.431H802.828L811.979 262.847H812.324L821.475 236.431H827L812.929 274.414C812.296 276.126 811.511 277.544 810.576 278.666C809.641 279.802 808.555 280.644 807.317 281.191C806.095 281.738 804.713 282.011 803.174 282.011Z" fill="#212121"/>
<path d="M776.591 270.357C774.49 270.357 772.584 269.962 770.872 269.17C769.16 268.365 767.8 267.206 766.793 265.696C765.786 264.171 765.282 262.329 765.282 260.171C765.282 258.272 765.656 256.732 766.404 255.552C767.153 254.358 768.153 253.423 769.404 252.747C770.656 252.071 772.037 251.567 773.548 251.236C775.073 250.891 776.605 250.617 778.145 250.416C780.159 250.157 781.792 249.963 783.044 249.833C784.31 249.689 785.231 249.452 785.806 249.121C786.396 248.79 786.691 248.215 786.691 247.395V247.222C786.691 245.093 786.108 243.438 784.943 242.258C783.792 241.078 782.044 240.488 779.699 240.488C777.267 240.488 775.361 241.021 773.98 242.086C772.598 243.15 771.627 244.287 771.066 245.495L766.232 243.769C767.095 241.755 768.246 240.186 769.685 239.064C771.138 237.927 772.721 237.136 774.433 236.69C776.159 236.23 777.857 236 779.526 236C780.591 236 781.814 236.129 783.195 236.388C784.591 236.633 785.936 237.143 787.231 237.92C788.54 238.697 789.626 239.87 790.49 241.438C791.353 243.006 791.784 245.107 791.784 247.74V269.58H786.691V265.091H786.432C786.087 265.811 785.511 266.581 784.706 267.401C783.9 268.221 782.828 268.919 781.49 269.494C780.152 270.07 778.519 270.357 776.591 270.357ZM777.368 265.782C779.382 265.782 781.08 265.386 782.461 264.595C783.857 263.804 784.907 262.782 785.612 261.531C786.331 260.279 786.691 258.962 786.691 257.581V252.919C786.475 253.178 786.001 253.416 785.267 253.632C784.547 253.833 783.713 254.013 782.763 254.171C781.828 254.315 780.914 254.445 780.022 254.56C779.145 254.66 778.433 254.747 777.886 254.819C776.562 254.991 775.325 255.272 774.174 255.66C773.037 256.034 772.116 256.603 771.411 257.365C770.721 258.113 770.375 259.135 770.375 260.43C770.375 262.2 771.03 263.538 772.339 264.444C773.663 265.336 775.339 265.782 777.368 265.782Z" fill="#212121"/>
<path d="M741.607 270.271C738.845 270.271 736.406 269.573 734.291 268.178C732.176 266.768 730.522 264.782 729.327 262.221C728.133 259.646 727.536 256.603 727.536 253.092C727.536 249.61 728.133 246.589 729.327 244.028C730.522 241.467 732.183 239.489 734.313 238.093C736.442 236.697 738.902 235.999 741.694 235.999C743.852 235.999 745.557 236.359 746.809 237.079C748.075 237.784 749.039 238.589 749.7 239.496C750.377 240.388 750.902 241.122 751.276 241.697H751.708V225.381H756.801V269.58H751.88V264.487H751.276C750.902 265.091 750.369 265.854 749.679 266.775C748.988 267.681 748.003 268.494 746.722 269.214C745.442 269.919 743.737 270.271 741.607 270.271ZM742.298 265.696C744.341 265.696 746.068 265.163 747.478 264.099C748.888 263.02 749.959 261.531 750.693 259.631C751.427 257.718 751.794 255.509 751.794 253.006C751.794 250.531 751.434 248.366 750.715 246.51C749.995 244.639 748.931 243.186 747.521 242.15C746.111 241.1 744.37 240.575 742.298 240.575C740.14 240.575 738.341 241.129 736.903 242.237C735.478 243.33 734.406 244.819 733.687 246.704C732.982 248.574 732.629 250.675 732.629 253.006C732.629 255.365 732.989 257.509 733.708 259.437C734.442 261.351 735.521 262.876 736.946 264.012C738.384 265.135 740.169 265.696 742.298 265.696Z" fill="#212121"/>
<path d="M681.448 282.011C680.585 282.011 679.815 281.939 679.139 281.795C678.463 281.666 677.995 281.536 677.736 281.407L679.031 276.918C680.269 277.234 681.362 277.349 682.312 277.263C683.261 277.177 684.103 276.752 684.837 275.99C685.585 275.242 686.268 274.026 686.887 272.342L687.837 269.753L675.578 236.431H681.103L690.254 262.847H690.599L699.75 236.431H705.275L691.203 274.414C690.57 276.126 689.786 277.544 688.851 278.666C687.916 279.802 686.829 280.644 685.592 281.191C684.369 281.738 682.988 282.011 681.448 282.011Z" fill="#212121"/>
<path d="M654.547 269.58V236.431H659.468V241.438H659.813C660.418 239.798 661.511 238.467 663.094 237.445C664.676 236.424 666.46 235.913 668.446 235.913C668.82 235.913 669.288 235.92 669.849 235.935C670.41 235.949 670.834 235.971 671.122 235.999V241.179C670.949 241.136 670.554 241.071 669.935 240.985C669.331 240.884 668.691 240.834 668.014 240.834C666.403 240.834 664.964 241.172 663.698 241.848C662.446 242.51 661.453 243.431 660.72 244.61C660 245.776 659.641 247.107 659.641 248.603V269.58H654.547Z" fill="#212121"/>
<path d="M633.073 270.271C629.879 270.271 627.124 269.566 624.808 268.156C622.506 266.732 620.729 264.746 619.477 262.2C618.24 259.639 617.621 256.66 617.621 253.265C617.621 249.869 618.24 246.877 619.477 244.287C620.729 241.683 622.47 239.654 624.7 238.201C626.944 236.733 629.563 236 632.555 236C634.282 236 635.987 236.287 637.67 236.863C639.354 237.438 640.886 238.373 642.267 239.668C643.648 240.949 644.749 242.647 645.569 244.762C646.389 246.877 646.799 249.481 646.799 252.574V254.732H621.247V250.33H641.62C641.62 248.459 641.246 246.79 640.497 245.323C639.764 243.855 638.713 242.697 637.347 241.848C635.994 240.999 634.397 240.575 632.555 240.575C630.527 240.575 628.771 241.078 627.29 242.086C625.822 243.078 624.693 244.373 623.901 245.97C623.11 247.567 622.714 249.279 622.714 251.107V254.042C622.714 256.545 623.146 258.667 624.009 260.408C624.887 262.135 626.103 263.451 627.656 264.358C629.21 265.25 631.016 265.696 633.073 265.696C634.411 265.696 635.62 265.509 636.699 265.135C637.793 264.746 638.735 264.171 639.526 263.408C640.318 262.631 640.929 261.667 641.361 260.516L646.281 261.897C645.763 263.566 644.893 265.034 643.67 266.3C642.447 267.552 640.936 268.53 639.138 269.235C637.339 269.926 635.318 270.271 633.073 270.271Z" fill="#212121"/>
<path d="M613.639 236.431L601.381 269.58H596.201L583.943 236.431H589.468L598.618 262.847H598.964L608.114 236.431H613.639Z" fill="#212121"/>
<path d="M566.068 270.271C562.874 270.271 560.119 269.566 557.803 268.156C555.5 266.732 553.724 264.746 552.472 262.2C551.235 259.639 550.616 256.66 550.616 253.265C550.616 249.869 551.235 246.877 552.472 244.287C553.724 241.683 555.465 239.654 557.695 238.201C559.939 236.733 562.558 236 565.55 236C567.277 236 568.982 236.287 570.665 236.863C572.349 237.438 573.881 238.373 575.262 239.668C576.643 240.949 577.744 242.647 578.564 244.762C579.384 246.877 579.794 249.481 579.794 252.574V254.732H554.242V250.33H574.615C574.615 248.459 574.24 246.79 573.492 245.323C572.759 243.855 571.708 242.697 570.341 241.848C568.989 240.999 567.392 240.575 565.55 240.575C563.522 240.575 561.766 241.078 560.284 242.086C558.817 243.078 557.687 244.373 556.896 245.97C556.105 247.567 555.709 249.279 555.709 251.107V254.042C555.709 256.545 556.141 258.667 557.004 260.408C557.882 262.135 559.097 263.451 560.651 264.358C562.205 265.25 564.011 265.696 566.068 265.696C567.406 265.696 568.615 265.509 569.694 265.135C570.787 264.746 571.73 264.171 572.521 263.408C573.312 262.631 573.924 261.667 574.356 260.516L579.276 261.897C578.758 263.566 577.888 265.034 576.665 266.3C575.442 267.552 573.931 268.53 572.133 269.235C570.334 269.926 568.313 270.271 566.068 270.271Z" fill="#212121"/>
<path d="M509.848 270.271C507.086 270.271 504.647 269.573 502.532 268.178C500.417 266.768 498.762 264.782 497.568 262.221C496.374 259.646 495.777 256.603 495.777 253.092C495.777 249.61 496.374 246.589 497.568 244.028C498.762 241.467 500.424 239.489 502.553 238.093C504.683 236.697 507.143 235.999 509.934 235.999C512.093 235.999 513.797 236.359 515.049 237.079C516.315 237.784 517.279 238.589 517.941 239.496C518.617 240.388 519.143 241.122 519.517 241.697H519.948V225.381H525.042V269.58H520.121V264.487H519.517C519.143 265.091 518.61 265.854 517.92 266.775C517.229 267.681 516.243 268.494 514.963 269.214C513.682 269.919 511.977 270.271 509.848 270.271ZM510.539 265.696C512.582 265.696 514.308 265.163 515.718 264.099C517.128 263.02 518.2 261.531 518.934 259.631C519.668 257.718 520.035 255.509 520.035 253.006C520.035 250.531 519.675 248.366 518.955 246.51C518.236 244.639 517.171 243.186 515.761 242.15C514.351 241.1 512.61 240.575 510.539 240.575C508.381 240.575 506.582 241.129 505.143 242.237C503.719 243.33 502.647 244.819 501.928 246.704C501.223 248.574 500.87 250.675 500.87 253.006C500.87 255.365 501.23 257.509 501.949 259.437C502.683 261.351 503.762 262.876 505.186 264.012C506.625 265.135 508.409 265.696 510.539 265.696Z" fill="#212121"/>
<path d="M466.874 249.639V269.58H461.781V236.431H466.701V241.611H467.133C467.91 239.927 469.09 238.575 470.672 237.553C472.255 236.517 474.298 236 476.801 236C479.046 236 481.01 236.46 482.693 237.381C484.377 238.287 485.686 239.668 486.621 241.524C487.556 243.366 488.024 245.697 488.024 248.517V269.58H482.931V248.862C482.931 246.258 482.254 244.229 480.902 242.776C479.549 241.309 477.693 240.575 475.334 240.575C473.708 240.575 472.255 240.927 470.974 241.632C469.708 242.337 468.708 243.366 467.975 244.718C467.241 246.071 466.874 247.711 466.874 249.639Z" fill="#212121"/>
<path d="M447.359 269.58V236.431H452.452V269.58H447.359ZM449.949 230.906C448.956 230.906 448.1 230.568 447.38 229.892C446.675 229.216 446.323 228.403 446.323 227.453C446.323 226.503 446.675 225.691 447.38 225.014C448.1 224.338 448.956 224 449.949 224C450.941 224 451.79 224.338 452.495 225.014C453.215 225.691 453.574 226.503 453.574 227.453C453.574 228.403 453.215 229.216 452.495 229.892C451.79 230.568 450.941 230.906 449.949 230.906Z" fill="#212121"/>
<path d="M419.049 257.495L418.962 251.193H419.998L434.501 236.431H440.803L425.351 252.056H424.919L419.049 257.495ZM414.301 269.58V225.381H419.394V269.58H414.301ZM435.364 269.58L422.415 253.178L426.041 249.639L441.839 269.58H435.364Z" fill="#212121"/>
<path d="M375.735 270.271C372.541 270.271 369.786 269.566 367.469 268.156C365.167 266.732 363.39 264.746 362.138 262.2C360.901 259.639 360.282 256.66 360.282 253.265C360.282 249.869 360.901 246.877 362.138 244.287C363.39 241.683 365.131 239.654 367.361 238.201C369.606 236.733 372.224 236 375.217 236C376.943 236 378.648 236.287 380.332 236.863C382.015 237.438 383.547 238.373 384.929 239.668C386.31 240.949 387.411 242.647 388.231 244.762C389.051 246.877 389.461 249.481 389.461 252.574V254.732H363.908V250.33H384.281C384.281 248.459 383.907 246.79 383.159 245.323C382.425 243.855 381.375 242.697 380.008 241.848C378.656 240.999 377.059 240.575 375.217 240.575C373.188 240.575 371.433 241.078 369.951 242.086C368.483 243.078 367.354 244.373 366.563 245.97C365.771 247.567 365.376 249.279 365.376 251.107V254.042C365.376 256.545 365.807 258.667 366.671 260.408C367.548 262.135 368.764 263.451 370.318 264.358C371.872 265.25 373.677 265.696 375.735 265.696C377.073 265.696 378.282 265.509 379.361 265.135C380.454 264.746 381.396 264.171 382.188 263.408C382.979 262.631 383.591 261.667 384.022 260.516L388.943 261.897C388.425 263.566 387.554 265.034 386.331 266.3C385.108 267.552 383.598 268.53 381.799 269.235C380.001 269.926 377.979 270.271 375.735 270.271Z" fill="#212121"/>
<path d="M323 269.58V225.381H338.452C341.531 225.381 344.071 225.914 346.071 226.978C348.071 228.029 349.56 229.446 350.538 231.23C351.516 233 352.006 234.964 352.006 237.122C352.006 239.021 351.668 240.589 350.991 241.827C350.329 243.064 349.452 244.042 348.358 244.762C347.279 245.481 346.107 246.013 344.841 246.359V246.79C346.193 246.877 347.553 247.351 348.919 248.215C350.286 249.078 351.43 250.315 352.351 251.927C353.272 253.538 353.732 255.509 353.732 257.84C353.732 260.056 353.229 262.048 352.221 263.818C351.214 265.588 349.624 266.991 347.452 268.027C345.279 269.062 342.452 269.58 338.97 269.58H323ZM328.352 264.832H338.97C342.467 264.832 344.948 264.156 346.416 262.804C347.898 261.437 348.639 259.782 348.639 257.84C348.639 256.344 348.258 254.963 347.495 253.696C346.733 252.416 345.646 251.394 344.236 250.632C342.826 249.855 341.157 249.466 339.229 249.466H328.352V264.832ZM328.352 244.805H338.28C339.891 244.805 341.344 244.488 342.639 243.855C343.949 243.222 344.984 242.33 345.747 241.179C346.524 240.028 346.912 238.676 346.912 237.122C346.912 235.179 346.236 233.532 344.884 232.18C343.531 230.813 341.388 230.129 338.452 230.129H328.352V244.805Z" fill="#212121"/>
</svg>